Coordinates
nRows=135
nColumns=2
inDegrees=yes
endheader
time	ankle_angle_r	
2.86272	 -0.198364	
2.93429	 -0.289917	
3.00586	 -0.335693	
3.07742	 -0.350952	
3.14899	 -0.274658	
3.22056	 -0.411987	
3.29213	 -0.427246	
3.3637	 -0.320435	
3.43526	 -0.366211	
3.50683	 -0.320435	
3.5784	 -0.381470	
3.64997	 -0.259399	
3.72154	 -0.289917	
3.7931	 -0.427246	
3.86467	 -0.350952	
3.93624	 -0.350952	
4.00781	 -0.335693	
4.07938	 -0.396729	
4.15094	 -0.366211	
4.22251	 -0.289917	
4.29408	 -0.381470	
4.36565	 -0.335693	
4.43722	 -0.366211	
4.50878	 -0.259399	
4.58035	 -0.350952	
4.65192	 -0.350952	
4.72349	 -0.259399	
4.79506	 -0.305176	
4.86662	 -0.289917	
4.93819	 -0.350952	
5.00976	 -0.198364	
5.08133	 -0.152588	
5.1529	 -0.335693	
5.22446	 -0.244141	
5.29603	 -0.320435	
5.3676	 -0.335693	
5.43917	 -0.427246	
5.51074	 -0.366211	
5.5823	 -0.228882	
5.65387	 -0.335693	
5.72544	 -0.320435	
5.79701	 -0.411987	
5.86858	 -0.244141	
5.94014	 -0.350952	
6.01171	 -0.396729	
6.08328	 -0.228882	
6.15485	 -0.305176	
6.22642	 -0.320435	
6.29798	 -0.335693	
6.36955	 -0.228882	
6.44112	 -0.198364	
6.51269	 -0.335693	
6.58426	 -0.244141	
6.65582	 -0.289917	
6.72739	 -0.244141	
6.79896	 -0.366211	
6.87053	 -0.381470	
6.9421	 -0.259399	
7.01366	 -0.396729	
7.08523	 -0.289917	
7.1568	 -0.396729	
7.22837	 -0.305176	
7.29994	 -0.381470	
7.3715	 -0.442505	
7.44307	 -0.320435	
7.51464	 -0.289917	
7.58621	 -0.228882	
7.65778	 -0.350952	
7.72934	 -0.244141	
7.80091	 -0.228882	
7.87248	 -0.335693	
7.94405	 -0.274658	
8.01562	 -0.320435	
8.08718	 -0.259399	
8.15875	 -0.366211	
8.23032	 -0.305176	
8.30189	 -0.213623	
8.37346	 -0.320435	
8.44502	 -0.274658	
8.51659	 -0.366211	
8.58816	 -0.198364	
8.65973	 -0.305176	
8.7313	 -0.350952	
8.80286	 -0.259399	
8.87443	 -0.305176	
8.946	 -0.259399	
9.01757	 -0.350952	
9.08914	 -0.183105	
9.1607	 -0.183105	
9.23227	 -0.305176	
9.30384	 -0.259399	
9.37541	 -0.305176	
9.44698	 -0.228882	
9.51854	 -0.396729	
9.59011	 -0.350952	
9.66168	 -0.274658	
9.73325	 -0.350952	
9.80482	 -0.320435	
9.87638	 -0.366211	
9.94795	 -0.274658	
10.0195	 -0.366211	
10.0911	 -0.396729	
10.1627	 -0.335693	
10.2342	 -0.381470	
10.3058	 -0.305176	
10.3774	 -0.381470	
10.4489	 -0.289917	
10.5205	 -0.213623	
10.5921	 -0.335693	
10.6636	 -0.244141	
10.7352	 -0.305176	
10.8068	 -0.228882	
10.8783	 -0.350952	
10.9499	 -0.335693	
11.0215	 -0.228882	
11.093	 -0.305176	
11.1646	 -0.305176	
11.2362	 -0.381470	
11.3077	 -0.274658	
11.3793	 -0.350952	
11.4509	 -0.411987	
11.5224	 -0.289917	
11.594	 -0.289917	
11.6656	 -0.335693	
11.7372	 -0.442505	
11.8087	 -0.259399	
11.8803	 -0.289917	
11.9519	 -0.320435	
12.0234	 -0.274658	
12.095	 -0.289917	
12.1666	 -0.259399	
12.2381	 -0.366211	
12.3097	 -0.259399	
12.3813	 -0.213623	
12.4528	 -0.289917	
